<svg width="49" height="40" viewBox="0 0 49 40" fill="none" xmlns="http://www.w3.org/2000/svg">
<circle cx="20" cy="20" r="20" fill="url(#paint0_linear)"/>
<path d="M45.8749 28.75H33.3749C33.0299 28.75 32.7499 28.47 32.7499 28.125V15.625C32.7499 15.28 33.0299 15 33.3749 15H45.8749C46.2199 15 46.4999 15.28 46.4999 15.625V28.125C46.4999 28.47 46.2199 28.75 45.8749 28.75ZM33.9999 27.5H45.2499V16.25H33.9999V27.5Z" fill="#544B46"/>
<path d="M41.5001 21.25H37.7501C37.4051 21.25 37.1251 20.97 37.1251 20.625V15.625C37.1251 15.28 37.4051 15 37.7501 15H41.5001C41.8451 15 42.1251 15.28 42.1251 15.625V20.625C42.1251 20.97 41.8451 21.25 41.5001 21.25ZM38.3751 20H40.8751V16.25H38.3751V20Z" fill="#544B46"/>
<path d="M30.875 11.25H27.125C26.78 11.25 26.5 10.97 26.5 10.625V5.625C26.5 5.28 26.78 5 27.125 5H30.875C31.22 5 31.5 5.28 31.5 5.625V10.625C31.5 10.97 31.22 11.25 30.875 11.25ZM27.75 10H30.25V6.25H27.75V10Z" fill="#544B46"/>
<path d="M48.375 35H43.375C43.03 35 42.75 34.72 42.75 34.375V32.5H25.25V34.375C25.25 34.72 24.97 35 24.625 35H19.625C19.28 35 19 34.72 19 34.375V28.125C19 27.78 19.28 27.5 19.625 27.5H48.375C48.72 27.5 49 27.78 49 28.125V34.375C49 34.72 48.72 35 48.375 35ZM44 33.75H47.75V28.75H20.25V33.75H24V31.875C24 31.53 24.28 31.25 24.625 31.25H43.375C43.72 31.25 44 31.53 44 31.875V33.75Z" fill="#544B46"/>
<path d="M22.1249 28.75C21.7799 28.75 21.4999 28.47 21.4999 28.125V5.625C21.4999 5.28 21.7799 5 22.1249 5H35.8749C36.2199 5 36.4999 5.28 36.4999 5.625V15.625C36.4999 15.97 36.2199 16.25 35.8749 16.25C35.5299 16.25 35.2499 15.97 35.2499 15.625V6.25H22.7499V28.125C22.7499 28.47 22.4699 28.75 22.1249 28.75Z" fill="#544B46"/>
<defs>
<linearGradient id="paint0_linear" x1="7.5" y1="6" x2="33.5" y2="33" gradientUnits="userSpaceOnUse">
<stop stop-color="#FACBAD"/>
<stop offset="0.9997" stop-color="#D3AB95"/>
</linearGradient>
</defs>
</svg>
