<svg width="68" height="40" viewBox="0 0 68 40" fill="none" xmlns="http://www.w3.org/2000/svg">
<circle cx="20" cy="20" r="20" fill="url(#paint0_linear)"/>
<path d="M64.6398 18.718L63.3968 13.8055C63.7366 13.7341 63.9916 13.4362 63.9916 13.0793V12.2873C63.9916 10.5675 62.5755 9.16847 60.8351 9.16847H55.1733V7.53468C55.1733 6.68842 54.4766 6 53.6201 6H24.7599C23.9034 6 23.2066 6.68842 23.2066 7.53468V21.0001C23.2066 21.4102 23.5431 21.7427 23.9582 21.7427C24.3733 21.7427 24.7098 21.4103 24.7098 21.0001V7.53468C24.7098 7.50735 24.7322 7.48521 24.7599 7.48521H53.62C53.6476 7.48521 53.67 7.50735 53.67 7.53468V21.0003C53.67 21.4104 54.0065 21.7429 54.4216 21.7429C54.8367 21.7429 55.1732 21.4105 55.1732 21.0003V20.1585H64.0391L64.041 20.1587L64.0431 20.1586C65.1341 20.1593 66.0604 20.8668 66.3786 21.8418H64.0416C63.6266 21.8418 63.29 22.1742 63.29 22.5844V24.1685C63.29 25.4515 64.3464 26.4953 65.6449 26.4953H66.4967V29.7626H64.5315C63.886 27.9208 62.114 26.5942 60.0332 26.5942C57.9524 26.5942 56.1804 27.9208 55.5349 29.7626H55.173V24.1684C55.173 23.7584 54.8366 23.4258 54.4214 23.4258C54.0064 23.4258 53.6698 23.7583 53.6698 24.1684V29.7624H38.0766C37.431 27.9206 35.6591 26.594 33.5783 26.594C31.4975 26.594 29.7254 27.9206 29.08 29.7624H24.7599C24.7322 29.7624 24.7098 29.7402 24.7098 29.7129V28.0792H27.9666C28.3816 28.0792 28.7182 27.7468 28.7182 27.3366C28.7182 26.9264 28.3817 26.594 27.9666 26.594H20.7516C20.3366 26.594 20 26.9264 20 27.3366C20 27.7468 20.3365 28.0792 20.7516 28.0792H23.2067V29.7129C23.2067 30.5592 23.9035 31.2476 24.76 31.2476H28.8197C28.8195 31.2641 28.8184 31.2805 28.8184 31.297C28.8184 33.8903 30.9538 36 33.5783 36C36.2028 36 38.3382 33.8903 38.3382 31.297C38.3382 31.2804 38.337 31.2641 38.3368 31.2476H55.2747C55.2745 31.2641 55.2733 31.2805 55.2733 31.297C55.2733 33.8903 57.4087 36 60.0332 36C62.6577 36 64.7931 33.8903 64.7931 31.297C64.7931 31.2804 64.792 31.2641 64.7918 31.2476H67.2483C67.6633 31.2476 67.9999 30.9151 67.9999 30.505V22.5842C68 20.6286 66.5397 19.0038 64.6398 18.718ZM55.1733 10.6536H60.8351C61.7468 10.6536 62.4885 11.3865 62.4885 12.2873V12.3367H55.1733V10.6536ZM55.1733 18.6734V13.8219H61.8516L63.0792 18.6734H55.1733ZM33.5783 34.5151C31.7825 34.5151 30.3215 33.0716 30.3215 31.2972C30.3215 29.5228 31.7825 28.0794 33.5783 28.0794C35.3741 28.0794 36.8351 29.5228 36.8351 31.2972C36.8351 33.0716 35.3741 34.5151 33.5783 34.5151ZM60.0334 34.5151C58.2376 34.5151 56.7766 33.0716 56.7766 31.2972C56.7766 29.5228 58.2376 28.0794 60.0334 28.0794C61.8292 28.0794 63.2902 29.5228 63.2902 31.2972C63.2902 33.0716 61.8292 34.5151 60.0334 34.5151ZM66.4969 25.01H65.6451C65.1754 25.01 64.7933 24.6325 64.7933 24.1684V23.3268H66.4968L66.4969 25.01Z" fill="#544B46"/>
<path d="M33.5786 29.7624C32.7221 29.7624 32.0254 30.4508 32.0254 31.2971C32.0254 32.1433 32.7221 32.8318 33.5786 32.8318C34.4351 32.8318 35.1319 32.1433 35.1319 31.2971C35.1319 30.4508 34.4351 29.7624 33.5786 29.7624Z" fill="#544B46"/>
<path d="M60.0337 29.7624C59.1772 29.7624 58.4805 30.4508 58.4805 31.2971C58.4805 32.1433 59.1772 32.8318 60.0337 32.8318C60.8902 32.8318 61.587 32.1433 61.587 31.2971C61.587 30.4508 60.8902 29.7624 60.0337 29.7624Z" fill="#544B46"/>
<path d="M51.2152 26.5937H39.9918C39.5768 26.5937 39.2402 26.9262 39.2402 27.3363C39.2402 27.7465 39.5767 28.0789 39.9918 28.0789H51.2152C51.6302 28.0789 51.9668 27.7465 51.9668 27.3363C51.9668 26.9262 51.6303 26.5937 51.2152 26.5937Z" fill="#544B46"/>
<path d="M31.9752 23.4258H22.3551C21.9401 23.4258 21.6035 23.7583 21.6035 24.1684C21.6035 24.5786 21.94 24.911 22.3551 24.911H31.9752C32.3902 24.911 32.7268 24.5786 32.7268 24.1684C32.7268 23.7583 32.3902 23.4258 31.9752 23.4258Z" fill="#544B46"/>
<path d="M46.1343 13.346C45.8409 13.0561 45.3649 13.0561 45.0715 13.3461L38.3878 19.9497L34.9109 16.5144C34.6174 16.2243 34.1415 16.2243 33.8481 16.5144C33.5545 16.8044 33.5545 17.2745 33.8481 17.5645L37.8565 21.5249C38.0032 21.67 38.1956 21.7424 38.3878 21.7424C38.5801 21.7424 38.7726 21.67 38.9192 21.5249L46.1342 14.3962C46.4277 14.1061 46.4277 13.636 46.1343 13.346Z" fill="#544B46"/>
<defs>
<linearGradient id="paint0_linear" x1="7.5" y1="6" x2="33.5" y2="33" gradientUnits="userSpaceOnUse">
<stop stop-color="#FACBAD"/>
<stop offset="0.9997" stop-color="#D3AB95"/>
</linearGradient>
</defs>
</svg>
