<svg width="72" height="41" viewBox="0 0 72 41" fill="none" xmlns="http://www.w3.org/2000/svg">
<circle cx="20" cy="20" r="20" fill="url(#paint0_linear)"/>
<path d="M31.388 30V26.698H22.236C21.6467 26.698 21.17 26.542 20.806 26.23C20.442 25.9007 20.26 25.3893 20.26 24.696C20.26 24.0547 20.5373 23.422 21.092 22.798L30.14 12.58C30.7293 11.9213 31.4227 11.592 32.22 11.592C32.792 11.592 33.1993 11.7393 33.442 12.034C33.6847 12.3113 33.806 12.736 33.806 13.308V24.722H35.912V26.698H33.806V30H31.388ZM31.388 24.722V14.374C31.388 14.3047 31.3533 14.27 31.284 14.27C31.232 14.27 31.128 14.3567 30.972 14.53L22.938 23.812C22.7127 24.072 22.6 24.2713 22.6 24.41C22.6 24.618 22.7647 24.722 23.094 24.722H31.388ZM37.3438 23.708V17.962C37.3438 15.5873 37.9072 13.9407 39.0338 13.022C40.1605 12.1033 41.9198 11.644 44.3118 11.644C46.7038 11.644 48.4632 12.1033 49.5898 13.022C50.7165 13.9407 51.2798 15.5873 51.2798 17.962V23.708C51.2798 26.0827 50.7165 27.7467 49.5898 28.7C48.4632 29.636 46.7038 30.104 44.3118 30.104C41.9198 30.104 40.1605 29.636 39.0338 28.7C37.9072 27.7467 37.3438 26.0827 37.3438 23.708ZM39.7618 18.118V23.578C39.7618 25.2767 40.1172 26.464 40.8278 27.14C41.5385 27.7987 42.6998 28.128 44.3118 28.128C45.9585 28.128 47.1285 27.7987 47.8218 27.14C48.5152 26.4813 48.8618 25.294 48.8618 23.578V18.118C48.8618 16.402 48.5152 15.2233 47.8218 14.582C47.1285 13.9407 45.9585 13.62 44.3118 13.62C42.6998 13.62 41.5385 13.9493 40.8278 14.608C40.1172 15.2493 39.7618 16.4193 39.7618 18.118ZM56.9732 30L65.7352 11.8H67.5032L58.7152 30H56.9732ZM54.5552 12.71C55.1099 11.9993 56.1239 11.644 57.5972 11.644C59.0706 11.644 60.0846 12.008 60.6392 12.736C61.1939 13.4467 61.4712 14.5387 61.4712 16.012C61.4712 17.4853 61.1939 18.5773 60.6392 19.288C60.0846 19.9987 59.0706 20.354 57.5972 20.354C56.1239 20.354 55.1099 19.9987 54.5552 19.288C54.0179 18.5773 53.7492 17.4853 53.7492 16.012C53.7492 14.5213 54.0179 13.4207 54.5552 12.71ZM55.5952 16.012C55.5952 16.9307 55.7252 17.6327 55.9852 18.118C56.2626 18.586 56.7999 18.82 57.5972 18.82C58.3946 18.82 58.9319 18.586 59.2092 18.118C59.4866 17.6327 59.6252 16.9307 59.6252 16.012C59.6252 15.0933 59.4866 14.3913 59.2092 13.906C58.9319 13.4207 58.3946 13.178 57.5972 13.178C56.7999 13.178 56.2626 13.4207 55.9852 13.906C55.7252 14.374 55.5952 15.076 55.5952 16.012ZM63.7072 22.512C64.2619 21.8013 65.2759 21.446 66.7492 21.446C68.2226 21.446 69.2366 21.81 69.7912 22.538C70.3459 23.2487 70.6232 24.3407 70.6232 25.814C70.6232 27.2873 70.3459 28.3793 69.7912 29.09C69.2366 29.8007 68.2226 30.156 66.7492 30.156C65.2759 30.156 64.2619 29.8007 63.7072 29.09C63.1699 28.3793 62.9012 27.2873 62.9012 25.814C62.9012 24.3233 63.1699 23.2227 63.7072 22.512ZM64.7472 25.814C64.7472 26.7327 64.8772 27.4347 65.1372 27.92C65.4146 28.388 65.9519 28.622 66.7492 28.622C67.5466 28.622 68.0839 28.388 68.3612 27.92C68.6386 27.4347 68.7772 26.7327 68.7772 25.814C68.7772 24.8953 68.6386 24.1933 68.3612 23.708C68.0839 23.2227 67.5466 22.98 66.7492 22.98C65.9519 22.98 65.4146 23.2227 65.1372 23.708C64.8772 24.176 64.7472 24.878 64.7472 25.814Z" fill="#544B46"/>
<defs>
<linearGradient id="paint0_linear" x1="7.5" y1="6" x2="33.5" y2="33" gradientUnits="userSpaceOnUse">
<stop stop-color="#FACBAD"/>
<stop offset="0.9997" stop-color="#D3AB95"/>
</linearGradient>
</defs>
</svg>
