<svg width="72" height="40" viewBox="0 0 72 40" fill="none" xmlns="http://www.w3.org/2000/svg">
<circle cx="20" cy="20" r="20" fill="url(#paint0_linear)"/>
<path d="M23.848 18.028H29.802C31.466 18.028 32.6707 18.4613 33.416 19.328C34.1613 20.1947 34.534 21.5293 34.534 23.332C34.534 25.204 34.1787 26.6167 33.468 27.57C32.7573 28.5233 31.492 29 29.672 29H26.058C24.4633 29 23.2933 28.5927 22.548 27.778C21.8027 26.946 21.43 25.6893 21.43 24.008V15.506C21.43 14.0673 21.8027 12.9233 22.548 12.074C23.3107 11.2247 24.4113 10.8 25.85 10.8H33.65V12.776H26.604C25.72 12.776 25.0353 13.0187 24.55 13.504C24.082 13.9893 23.848 14.6913 23.848 15.61V18.028ZM23.848 20.004V24.086C23.848 25.1087 24.0473 25.854 24.446 26.322C24.862 26.79 25.59 27.024 26.63 27.024H29.074C30.166 27.024 30.9287 26.7207 31.362 26.114C31.7953 25.5073 32.012 24.58 32.012 23.332C32.012 22.188 31.778 21.3473 31.31 20.81C30.842 20.2727 30.01 20.004 28.814 20.004H23.848ZM36.8614 22.708V16.962C36.8614 14.5873 37.4247 12.9407 38.5514 12.022C39.6781 11.1033 41.4374 10.644 43.8294 10.644C46.2214 10.644 47.9807 11.1033 49.1074 12.022C50.2341 12.9407 50.7974 14.5873 50.7974 16.962V22.708C50.7974 25.0827 50.2341 26.7467 49.1074 27.7C47.9807 28.636 46.2214 29.104 43.8294 29.104C41.4374 29.104 39.6781 28.636 38.5514 27.7C37.4247 26.7467 36.8614 25.0827 36.8614 22.708ZM39.2794 17.118V22.578C39.2794 24.2767 39.6347 25.464 40.3454 26.14C41.0561 26.7987 42.2174 27.128 43.8294 27.128C45.4761 27.128 46.6461 26.7987 47.3394 26.14C48.0327 25.4813 48.3794 24.294 48.3794 22.578V17.118C48.3794 15.402 48.0327 14.2233 47.3394 13.582C46.6461 12.9407 45.4761 12.62 43.8294 12.62C42.2174 12.62 41.0561 12.9493 40.3454 13.608C39.6347 14.2493 39.2794 15.4193 39.2794 17.118ZM56.4908 29L65.2528 10.8H67.0208L58.2328 29H56.4908ZM54.0728 11.71C54.6275 10.9993 55.6415 10.644 57.1148 10.644C58.5881 10.644 59.6021 11.008 60.1568 11.736C60.7115 12.4467 60.9888 13.5387 60.9888 15.012C60.9888 16.4853 60.7115 17.5773 60.1568 18.288C59.6021 18.9987 58.5881 19.354 57.1148 19.354C55.6415 19.354 54.6275 18.9987 54.0728 18.288C53.5355 17.5773 53.2668 16.4853 53.2668 15.012C53.2668 13.5213 53.5355 12.4207 54.0728 11.71ZM55.1128 15.012C55.1128 15.9307 55.2428 16.6327 55.5028 17.118C55.7801 17.586 56.3175 17.82 57.1148 17.82C57.9121 17.82 58.4495 17.586 58.7268 17.118C59.0041 16.6327 59.1428 15.9307 59.1428 15.012C59.1428 14.0933 59.0041 13.3913 58.7268 12.906C58.4495 12.4207 57.9121 12.178 57.1148 12.178C56.3175 12.178 55.7801 12.4207 55.5028 12.906C55.2428 13.374 55.1128 14.076 55.1128 15.012ZM63.2248 21.512C63.7795 20.8013 64.7935 20.446 66.2668 20.446C67.7401 20.446 68.7541 20.81 69.3088 21.538C69.8635 22.2487 70.1408 23.3407 70.1408 24.814C70.1408 26.2873 69.8635 27.3793 69.3088 28.09C68.7541 28.8007 67.7401 29.156 66.2668 29.156C64.7935 29.156 63.7795 28.8007 63.2248 28.09C62.6875 27.3793 62.4188 26.2873 62.4188 24.814C62.4188 23.3233 62.6875 22.2227 63.2248 21.512ZM64.2648 24.814C64.2648 25.7327 64.3948 26.4347 64.6548 26.92C64.9321 27.388 65.4695 27.622 66.2668 27.622C67.0641 27.622 67.6015 27.388 67.8788 26.92C68.1561 26.4347 68.2948 25.7327 68.2948 24.814C68.2948 23.8953 68.1561 23.1933 67.8788 22.708C67.6015 22.2227 67.0641 21.98 66.2668 21.98C65.4695 21.98 64.9321 22.2227 64.6548 22.708C64.3948 23.176 64.2648 23.878 64.2648 24.814Z" fill="#544B46"/>
<defs>
<linearGradient id="paint0_linear" x1="7.5" y1="6" x2="33.5" y2="33" gradientUnits="userSpaceOnUse">
<stop stop-color="#FACBAD"/>
<stop offset="0.9997" stop-color="#D3AB95"/>
</linearGradient>
</defs>
</svg>
