<svg width="40" height="40" viewBox="0 0 40 40" fill="none" xmlns="http://www.w3.org/2000/svg">
<circle cx="20" cy="20" r="20" fill="url(#paint0_linear)"/>
<path d="M20 20.278V18.302H22.08V12.244C22.08 10.6147 22.8947 9.8 24.524 9.8H30.4C32.168 9.8 33.4073 10.2333 34.118 11.1C34.846 11.9493 35.21 13.2407 35.21 14.974C35.21 16.794 34.8547 18.1373 34.144 19.004C33.4333 19.8533 32.1853 20.278 30.4 20.278H24.498V22.904H30.062V24.88H24.498V28H22.08V24.88H20V22.904H22.08V20.278H20ZM24.498 18.302H29.698C30.8767 18.302 31.6653 18.0507 32.064 17.548C32.48 17.028 32.688 16.17 32.688 14.974C32.688 13.83 32.4713 13.0153 32.038 12.53C31.622 12.0273 30.842 11.776 29.698 11.776H25.668C25.1827 11.776 24.862 11.8627 24.706 12.036C24.5673 12.2093 24.498 12.5213 24.498 12.972V18.302Z" fill="#544B46"/>
<defs>
<linearGradient id="paint0_linear" x1="7.5" y1="6" x2="33.5" y2="33" gradientUnits="userSpaceOnUse">
<stop stop-color="#FACBAD"/>
<stop offset="0.9997" stop-color="#D3AB95"/>
</linearGradient>
</defs>
</svg>
