<svg width="21" height="20" viewBox="0 0 21 20" fill="none" xmlns="http://www.w3.org/2000/svg">
<path d="M20.5443 9.06366C20.9576 8.66321 21.1035 8.07549 20.9252 7.52916C20.7465 6.98282 20.281 6.59282 19.7092 6.51005L14.6245 5.77561C14.4079 5.74426 14.2208 5.60925 14.1241 5.41404L11.8509 0.834343C11.5956 0.319776 11.0776 0 10.5002 0C9.92328 0 9.40523 0.319776 9.14999 0.834343L6.87634 5.41445C6.77963 5.60966 6.59209 5.74468 6.37553 5.77603L1.29085 6.51047C0.719388 6.59282 0.253474 6.98324 0.0747617 7.52957C-0.10353 8.07591 0.0423832 8.66363 0.455734 9.06408L4.13469 12.6288C4.29153 12.781 4.36344 13 4.32643 13.2141L3.45852 18.2477C3.38157 18.6908 3.49847 19.1218 3.78693 19.4616C4.23519 19.9912 5.01774 20.1526 5.64344 19.8257L10.1907 17.4489C10.3808 17.3498 10.6201 17.3507 10.8097 17.4489L15.3574 19.8257C15.5786 19.9415 15.8145 20 16.058 20C16.5024 20 16.9238 19.8035 17.2135 19.4616C17.5024 19.1218 17.6188 18.69 17.5419 18.2477L16.6736 13.2141C16.6366 12.9996 16.7085 12.781 16.8653 12.6288L20.5443 9.06366Z" fill="#FACBAD"/>
</svg>
