<svg width="16" height="16" viewBox="0 0 16 16" fill="none" xmlns="http://www.w3.org/2000/svg">
<path fill-rule="evenodd" clip-rule="evenodd" d="M7.2 0C11.1765 0 14.4 3.22355 14.4 7.2C14.4 8.89982 13.811 10.4621 12.8258 11.6937L15.7657 14.6343C16.0781 14.9467 16.0781 15.4533 15.7657 15.7657C15.4773 16.0541 15.0235 16.0763 14.7097 15.8322L14.6343 15.7657L11.6937 12.8258C10.4621 13.811 8.89982 14.4 7.2 14.4C3.22355 14.4 0 11.1765 0 7.2C0 3.22355 3.22355 0 7.2 0ZM7.2 1.6001C4.10721 1.6001 1.6 4.1073 1.6 7.2001C1.6 10.2929 4.10721 12.8001 7.2 12.8001C10.2928 12.8001 12.8 10.2929 12.8 7.2001C12.8 4.1073 10.2928 1.6001 7.2 1.6001Z" fill="#FACBAD"/>
</svg>
