<svg width="84" height="51" viewBox="0 0 84 51" fill="none" xmlns="http://www.w3.org/2000/svg">
<circle cx="20" cy="26" r="20" fill="url(#paint0_linear)"/>
<path d="M39.0188 31.875H39.9503C40.5277 31.875 41 31.3969 41 30.8125V26.5625C41 24.7961 39.5961 23.375 37.851 23.375H26.3047V1.0625C26.3047 0.478125 25.8324 0 25.2551 0H21.0564C20.4791 0 20.0068 0.478125 20.0068 1.0625V30.8125C20.0068 31.3969 20.4791 31.875 21.0564 31.875H21.988L20.0068 49.818C19.9411 50.4023 20.361 50.9203 20.9383 50.9867C20.9777 50.9867 21.0171 50.9867 21.0564 50.9867H24.2054C24.7434 50.9867 25.1895 50.575 25.2551 50.0437L27.2494 31.875H33.7705L35.7648 50.057C35.8173 50.5883 36.2765 51 36.8014 51H39.9503C40.5277 51 41 50.5219 41 49.9375C41 49.8977 41 49.8578 41 49.818L39.0188 31.875ZM23.2607 48.875H22.2242L24.1004 31.875H25.137L23.2607 48.875ZM37.746 48.875L35.8698 31.875H36.9063L38.7695 48.875H37.746ZM38.9007 29.75H22.1061V2.125H24.2054V24.4375C24.2054 25.0219 24.6778 25.5 25.2551 25.5H37.851C38.4283 25.5 38.9007 25.9781 38.9007 26.5625V29.75Z" fill="#544B46"/>
<path d="M83.9869 49.818L82.0181 31.875H82.95C83.5275 31.875 84 31.3969 84 30.8125V1.0625C84 0.478125 83.5275 0 82.95 0H78.75C78.1725 0 77.7 0.478125 77.7 1.0625V23.375H66.15C64.4044 23.375 63 24.7961 63 26.5625V30.8125C63 31.3969 63.4725 31.875 64.05 31.875H64.9819L63.0131 49.818C62.9475 50.4023 63.3675 50.9203 63.945 50.9867C63.9844 50.9867 64.0238 50.9867 64.0631 50.9867H67.2131C67.7513 50.9867 68.1975 50.575 68.2631 50.0437L70.2319 31.875H76.755L78.75 50.057C78.8025 50.5883 79.2619 51 79.7869 51H82.9369C83.5144 51 83.9869 50.5219 83.9869 49.9375C83.9869 49.8977 83.9869 49.8578 83.9869 49.818ZM66.2419 48.875H65.205L67.0819 31.875H68.1187L66.2419 48.875ZM80.7319 48.875L78.855 31.875H79.8919L81.7556 48.875H80.7319ZM81.8869 29.75H65.0869V26.5625C65.0869 25.9781 65.5594 25.5 66.1369 25.5H78.7369C79.3144 25.5 79.7869 25.0219 79.7869 24.4375V2.125H81.8869V29.75Z" fill="#544B46"/>
<path d="M68 18.2778V14.0556C68 13.475 67.52 13 66.9333 13H37.0667C36.48 13 36 13.475 36 14.0556V18.2778C36 18.8583 36.48 19.3333 37.0667 19.3333H47.7333V49.9444C47.7333 50.525 48.2133 51 48.8 51H55.2C55.7867 51 56.2667 50.525 56.2667 49.9444V19.3333H66.9333C67.52 19.3333 68 18.8583 68 18.2778ZM54.1333 48.8889H49.8667V19.3333H54.1333V48.8889ZM65.8667 17.2222H38.1333V15.1111H65.8667V17.2222Z" fill="#544B46"/>
<defs>
<linearGradient id="paint0_linear" x1="7.5" y1="12" x2="33.5" y2="39" gradientUnits="userSpaceOnUse">
<stop stop-color="#FACBAD"/>
<stop offset="0.9997" stop-color="#D3AB95"/>
</linearGradient>
</defs>
</svg>
