<svg width="84" height="64" viewBox="0 0 84 64" fill="none" xmlns="http://www.w3.org/2000/svg">
<circle cx="20" cy="32" r="20" fill="url(#paint0_linear)"/>
<path d="M68.9713 45.4625L62.9822 43.4875L60.8261 39.2125C62.7678 37.2625 64.1043 34.675 64.5583 31.975L64.823 30.375H67.1304C69.2109 30.375 70.913 28.6875 70.913 26.625V18.75C70.913 8.4125 62.4274 0 52 0C41.5474 0 33.087 8.3875 33.087 18.75V26.625C33.087 28.25 34.1461 29.65 35.6087 30.1625V31.625C35.6087 33.6875 37.3109 35.375 39.3913 35.375H40.5009C41.043 36.55 41.7491 37.6375 42.6191 38.625C42.7957 38.825 42.9848 39.025 43.1739 39.2125L41.0178 43.475L35.0287 45.45C28.0561 47.7625 23 55.0375 23 62.75C23 63.4375 23.5674 64 24.2609 64H79.7391C80.4326 64 81 63.4375 81 62.75C81 55.0375 75.9439 47.7625 68.9713 45.4625ZM68.3913 26.625C68.3913 27.3125 67.8239 27.875 67.1304 27.875H65.2013C65.5165 25.4125 65.7309 22.8 65.8191 20.2125C65.8191 20.1375 65.8191 20.075 65.8317 20H68.3913V26.625ZM36.8696 27.875C36.1761 27.875 35.6087 27.3125 35.6087 26.625V20H38.1683C38.1683 20.125 38.1809 20.2625 38.1809 20.3875V20.4C38.2691 22.9125 38.4835 25.4625 38.7987 27.8625L36.8696 27.875ZM39.3913 32.875C38.6978 32.875 38.1304 32.3125 38.1304 31.625V30.375H39.1643L39.4291 31.975C39.4796 32.275 39.5426 32.575 39.6183 32.875H39.3913ZM38.1304 17.5H35.6591C36.3022 9.125 43.3504 2.5 52 2.5C60.6117 2.5 67.6978 9.125 68.3409 17.5H65.8696C65.7813 10.6 60.1074 5 53.1348 5H50.8778C43.8926 5 38.2187 10.6 38.1304 17.5ZM50.8778 7.5H53.1348C58.7835 7.5 63.3604 12.0875 63.3478 17.675C63.3478 18.0625 63.3478 18.4125 63.3352 18.725V18.7375L61.7591 18.5125C57.4722 17.9 53.4248 15.9 50.3735 12.8625C50.1339 12.625 49.8187 12.5 49.4783 12.5C46.0865 12.5 42.8461 14.025 40.7026 16.6125C41.2322 11.525 45.5822 7.5 50.8778 7.5ZM42.2283 32.875C41.5978 30.7875 40.8791 24.6625 40.7152 20.7375L42.4174 18.5C43.9809 16.4375 46.4017 15.1625 48.9739 15.0125C52.3657 18.2125 56.7535 20.325 61.3935 20.9875L63.247 21.25C63.1209 23.8625 62.8687 26.475 62.503 28.8875C62.3896 29.6625 62.3013 30.1625 62.0617 31.55C61.3935 35.525 58.4052 39.1125 54.4587 40.0875C52.8322 40.4875 51.13 40.4875 49.5035 40.0875C47.0448 39.475 44.7752 37.7875 43.3252 35.3625H45.8974C46.4143 36.8125 47.8139 37.8625 49.4657 37.8625H51.9874C54.0804 37.8625 55.77 36.1875 55.77 34.1125C55.77 32.05 54.0678 30.3625 51.9874 30.3625H49.4657C47.7887 30.3625 46.4017 31.4375 45.8974 32.8625H42.2283V32.875ZM49.3774 42.625C50.2474 42.8 51.13 42.9 52 42.9C52.6935 42.9 53.3743 42.8375 54.0678 42.7375L51.8361 45.075L49.3774 42.625ZM50.0961 46.8875L46.0991 51.075C45.0022 48.9875 44.0565 46.8125 43.2748 44.5875L44.7752 41.6125L50.0961 46.8875ZM59.0104 41.1875L60.7252 44.5875C59.9435 46.8125 58.9978 48.9875 57.9009 51.075L53.6265 46.8375L59.0104 41.1875ZM48.2174 34.125C48.2174 33.4375 48.7848 32.875 49.4783 32.875H52C52.6935 32.875 53.2609 33.4375 53.2609 34.125C53.2609 34.8125 52.6935 35.375 52 35.375H49.4783C48.7848 35.375 48.2174 34.8125 48.2174 34.125ZM25.5722 61.5C26.0765 55.3125 30.2248 49.675 35.823 47.825L41.1313 46.075C42.1022 48.7375 43.3126 51.3375 44.7248 53.7875C44.7248 53.7875 44.7248 53.8 44.7374 53.8C45.7713 55.6 46.9313 57.3625 48.1922 59.025L49.7304 61.5H25.5722ZM52 60.3875L50.2852 57.6625C50.26 57.6375 50.2474 57.6 50.2222 57.575C49.2009 56.225 48.2426 54.8125 47.3852 53.3625L51.8865 48.65L56.6274 53.35C55.7574 54.8 54.7991 56.225 53.7778 57.575C53.7148 57.6625 53.803 57.525 52 60.3875ZM54.2696 61.5L55.8204 59.0375C57.0813 57.3625 58.2539 55.5875 59.3004 53.775C59.3004 53.7625 59.313 53.75 59.313 53.7375C60.7126 51.3 61.8978 48.7375 62.8687 46.0875L68.177 47.8375C73.7752 49.6875 77.9235 55.3125 78.4278 61.5125L54.2696 61.5Z" fill="#544B46"/>
<path d="M66.5 50C65.675 50 65 50.675 65 51.5C65 52.325 65.675 53 66.5 53C67.325 53 68 52.325 68 51.5C68 50.675 67.325 50 66.5 50Z" fill="#544B46"/>
<path d="M74.8579 56.3005C73.9735 54.7206 72.6798 53.3176 71.1221 52.2447C70.5413 51.8439 69.7096 51.95 69.274 52.4569C68.8252 52.9757 68.944 53.7185 69.5116 54.1076C70.7657 54.9682 71.7953 56.0883 72.495 57.3498C72.825 57.9275 73.6171 58.1633 74.2639 57.8804C74.9239 57.5974 75.1879 56.89 74.8579 56.3005Z" fill="#544B46"/>
<defs>
<linearGradient id="paint0_linear" x1="7.5" y1="18" x2="33.5" y2="45" gradientUnits="userSpaceOnUse">
<stop stop-color="#FACBAD"/>
<stop offset="0.9997" stop-color="#D3AB95"/>
</linearGradient>
</defs>
</svg>
