<svg width="84" height="64" viewBox="0 0 84 64" fill="none" xmlns="http://www.w3.org/2000/svg">
<circle cx="20" cy="32" r="20" fill="url(#paint0_linear)"/>
<path d="M82.6503 47.9906H78.651V25.3326C78.651 24.5952 78.0512 23.9953 77.3138 23.9953H69.3154H65.3162V1.33724C65.3287 0.599883 64.7288 0 63.9914 0H55.993H47.9945H39.9961C39.2587 0 38.6589 0.599883 38.6589 1.33724V23.9953H34.6596H26.6612C25.9238 23.9953 25.324 24.5952 25.324 25.3326V47.9906H21.3247C20.5999 47.9906 20 48.5905 20 49.3279V62.6628C20 63.4001 20.5999 64 21.3372 64H31.9977C32.735 64 33.3349 63.4001 33.3349 62.6628V58.6635H43.9953V62.6628C43.9953 63.4001 44.5952 64 45.3326 64H58.6674C59.4048 64 60.0047 63.4001 60.0047 62.6628V58.6635H70.6651V62.6628C70.6651 63.4001 71.265 64 72.0023 64H82.6628C83.4001 64 84 63.4001 84 62.6628V49.3279C83.9875 48.5905 83.3876 47.9906 82.6503 47.9906ZM61.3294 34.6557H69.3279C70.0652 34.6557 70.6651 34.0559 70.6651 33.3185V26.6573H75.9891V47.9906H53.331V26.6573H59.9922V33.3185C59.9922 34.0683 60.5921 34.6557 61.3294 34.6557ZM67.9906 26.6573V31.9938H62.6542V26.6573H63.9914H67.9906ZM49.3318 2.66198H54.6682V7.99844H49.3318V2.66198ZM41.3333 2.66198H46.6698V9.32318C46.6698 10.0605 47.2697 10.6604 48.007 10.6604H56.0055C56.7428 10.6604 57.3427 10.0605 57.3427 9.32318V2.66198H62.6792V23.9953H61.3419H51.9938H42.6581H41.3208V2.66198H41.3333ZM35.9969 26.6573H39.9961H41.3333V31.9938H35.9969V26.6573ZM27.9984 26.6573H33.3349V33.3185C33.3349 34.0559 33.9348 34.6557 34.6721 34.6557H42.6706C43.4079 34.6557 44.0078 34.0559 44.0078 33.3185V26.6573H50.669V47.9906H27.9984V26.6573ZM81.3255 61.3255H73.3271V57.3263C73.3271 56.589 72.7272 55.9891 71.9898 55.9891H58.655C57.9176 55.9891 57.3177 56.589 57.3177 57.3263V61.3255H46.6573V57.3263C46.6573 56.589 46.0574 55.9891 45.3201 55.9891H31.9977C31.2603 55.9891 30.6604 56.589 30.6604 57.3263V61.3255H22.662V50.6651H26.6612H51.9938H77.3263H81.3255V61.3255Z" fill="#544B46"/>
<defs>
<linearGradient id="paint0_linear" x1="7.5" y1="18" x2="33.5" y2="45" gradientUnits="userSpaceOnUse">
<stop stop-color="#FACBAD"/>
<stop offset="0.9997" stop-color="#D3AB95"/>
</linearGradient>
</defs>
</svg>
