<svg width="84" height="64" viewBox="0 0 84 64" fill="none" xmlns="http://www.w3.org/2000/svg">
<circle cx="20" cy="32" r="20" fill="url(#paint0_linear)"/>
<path d="M27 27C25.35 27 24 25.65 24 24C24 22.35 25.35 21 27 21C28.65 21 30 22.35 30 24C30 25.65 28.65 27 27 27ZM27 23C26.45 23 26 23.45 26 24C26 24.55 26.45 25 27 25C27.55 25 28 24.55 28 24C28 23.45 27.55 23 27 23Z" fill="#544B46"/>
<path d="M55.9827 16C55.7259 16 55.4564 15.8972 55.251 15.7046L52.2985 12.7502C51.9005 12.352 51.9005 11.6969 52.2985 11.2987C52.6964 10.9004 53.3511 10.9004 53.749 11.2987L56.7015 14.2531C57.0995 14.6513 57.0995 15.3064 56.7015 15.7046C56.509 15.8972 56.2394 16 55.9827 16Z" fill="#544B46"/>
<path d="M51.0145 15C50.7658 15 50.5047 14.9007 50.3057 14.7144L46.2891 10.6917C45.9036 10.3068 45.9036 9.67356 46.2891 9.28867C46.6746 8.90378 47.3088 8.90378 47.6943 9.28867L51.7109 13.299C52.0964 13.6839 52.0964 14.3171 51.7109 14.702C51.5244 14.9007 51.2632 15 51.0145 15Z" fill="#544B46"/>
<path d="M59.9938 14C59.4472 14 59 13.55 59 13C59 12.45 59.4348 12 59.9938 12H60.0062C60.5528 12 61 12.45 61 13C61 13.55 60.5404 14 59.9938 14Z" fill="#544B46"/>
<path d="M54.9938 9C54.4472 9 54 8.55 54 8C54 7.45 54.4348 7 54.9938 7H55.0062C55.5528 7 56 7.45 56 8C56 8.55 55.5404 9 54.9938 9Z" fill="#544B46"/>
<path d="M49.9938 9C49.4472 9 49 8.55 49 8C49 7.45 49.4348 7 49.9938 7H50.0062C50.5528 7 51 7.45 51 8C51 8.55 50.5404 9 49.9938 9Z" fill="#544B46"/>
<path d="M82.9877 29H77.9637C77.4513 21.75 71.39 16 64.0039 16C61.4044 16 58.8924 16.7125 56.6928 18.0625C55.643 17.4 54.4058 17.0125 53.0685 17C53.0435 17 53.0186 17 52.9936 17H26.9986C23.1369 17 20 20.1375 20 24C20 25.9625 20.8123 27.725 22.1121 29H20.9998C20.4499 29 20 29.45 20 30V35C20 35.55 20.4499 36 20.9998 36V57C20.9998 57.55 21.4497 58 21.9996 58C22.5495 58 22.9994 57.55 22.9994 57V36H24.999V57C24.999 57.55 25.4489 58 25.9988 58C26.5487 58 26.9986 57.55 26.9986 57V54H76.9889V57C76.9889 57.55 77.4388 58 77.9887 58C78.5386 58 78.9885 57.55 78.9885 57V36H80.9881V57C80.9881 57.55 81.438 58 81.9879 58C82.5378 58 82.9877 57.55 82.9877 57V36C83.2252 36 83.4501 35.9125 83.6251 35.775C83.6501 35.75 83.6751 35.7375 83.7001 35.7125C83.7251 35.6875 83.7376 35.6625 83.7626 35.65C83.7626 35.65 83.7626 35.6375 83.775 35.6375C83.7875 35.6125 83.8125 35.6 83.825 35.575C83.8375 35.55 83.8625 35.525 83.875 35.5C83.8875 35.4875 83.8875 35.475 83.9 35.4625C83.9125 35.45 83.9125 35.4375 83.925 35.4125C83.925 35.4 83.9375 35.3875 83.9375 35.375C83.95 35.3625 83.95 35.3375 83.9625 35.325C83.9625 35.3125 83.975 35.2875 83.975 35.275C83.975 35.2625 83.9875 35.2375 83.9875 35.225C83.9875 35.2 84 35.175 84 35.15C84 35.1375 84 35.1375 84 35.125C84 35.0875 84 35.0625 84 35.025V30.025C83.9875 29.45 83.5376 29 82.9877 29ZM64.0039 18C70.2777 18 75.4517 22.85 75.9641 29H74.9643C74.4519 23.4 69.7403 19 64.0164 19C62.2293 19 60.4796 19.4375 58.9174 20.25C58.7299 19.9625 58.53 19.7 58.3175 19.4375C60.0422 18.5 61.9918 18 64.0039 18ZM64.0039 26C62.1418 26 60.5796 27.275 60.1297 29H57.8801C59.1799 27.725 59.9922 25.9625 59.9922 24C59.9922 23.3375 59.8922 22.6875 59.7172 22.0875C61.0295 21.375 62.4917 21 63.9914 21C68.6155 21 72.4398 24.5125 72.9397 29H67.8657C67.4282 27.275 65.866 26 64.0039 26ZM65.7286 29H62.2668C62.6167 28.4 63.2541 28 63.9914 28C64.7413 28 65.3911 28.4 65.7286 29ZM52.9561 19C52.9686 19 52.9811 19 52.9936 19C55.7555 19 57.9926 21.2375 57.9926 24C57.9926 26.7625 55.7555 29 52.9936 29H31.8852C33.1849 27.725 33.9973 25.9625 33.9973 24C33.9973 22.0375 33.1849 20.275 31.8852 19H52.9561ZM21.9996 24C21.9996 21.2375 24.2367 19 26.9986 19C29.7606 19 31.9977 21.2375 31.9977 24C31.9977 26.7625 29.7606 29 26.9986 29C24.2367 29 21.9996 26.7625 21.9996 24ZM76.9889 52H26.9986V51.0375H76.9889V52ZM76.9889 49.0375H26.9986V36H51.3314C53.6434 40.875 58.5425 44 63.9789 44H63.9914H64.0039C69.4403 44 74.3394 40.875 76.6514 36H76.9889V49.0375ZM63.9789 41C63.9914 41 64.0039 41 64.0039 41C67.7282 41 71.2025 39.1 73.2271 36H74.4019C72.2773 39.6875 68.3406 42 64.0039 42C63.9914 42 63.9914 42 63.9789 42C59.6423 42 55.7055 39.6875 53.5809 36H54.7557C56.7803 39.1 60.2546 41 63.9789 41ZM57.2677 36H70.7026C69.0154 37.8875 66.5784 39 63.9914 39H63.9789H63.9664C61.4044 39 58.9674 37.8875 57.2677 36ZM81.9879 34H72.7147C72.6772 34 72.6522 34 72.6147 34H55.3306C55.3056 34 55.2931 34 55.2681 34H21.9996V31H74.002H81.9879V34Z" fill="#544B46"/>
<defs>
<linearGradient id="paint0_linear" x1="7.5" y1="18" x2="33.5" y2="45" gradientUnits="userSpaceOnUse">
<stop stop-color="#FACBAD"/>
<stop offset="0.9997" stop-color="#D3AB95"/>
</linearGradient>
</defs>
</svg>
